<svg width="20" height="15" viewBox="0 0 20 15" fill="none" xmlns="http://www.w3.org/2000/svg">
    <path
        d="M9.91821 9.42662C10.4486 9.42662 10.9574 9.21591 11.3324 8.84083C11.7075 8.46576 11.9182 7.95705 11.9182 7.42662C11.9182 6.89619 11.7075 6.38748 11.3324 6.01241C10.9574 5.63733 10.4486 5.42662 9.91821 5.42662C9.38778 5.42662 8.87907 5.63733 8.504 6.01241C8.12893 6.38748 7.91821 6.89619 7.91821 7.42662C7.91821 7.95705 8.12893 8.46576 8.504 8.84083C8.87907 9.21591 9.38778 9.42662 9.91821 9.42662Z"
        fill="white" />
    <path fill-rule="evenodd" clip-rule="evenodd"
        d="M0.376221 7.42662C1.65022 3.36962 5.44022 0.42662 9.91822 0.42662C14.3962 0.42662 18.1862 3.36962 19.4602 7.42662C18.1862 11.4836 14.3962 14.4266 9.91822 14.4266C5.44022 14.4266 1.65022 11.4836 0.376221 7.42662ZM13.9182 7.42662C13.9182 8.48749 13.4968 9.5049 12.7466 10.255C11.9965 11.0052 10.9791 11.4266 9.91822 11.4266C8.85735 11.4266 7.83994 11.0052 7.08979 10.255C6.33965 9.5049 5.91822 8.48749 5.91822 7.42662C5.91822 6.36575 6.33965 5.34834 7.08979 4.59819C7.83994 3.84805 8.85735 3.42662 9.91822 3.42662C10.9791 3.42662 11.9965 3.84805 12.7466 4.59819C13.4968 5.34834 13.9182 6.36575 13.9182 7.42662Z"
        fill="white" />
</svg>