<svg width="220" height="220" viewBox="0 0 220 220" fill="none" xmlns="http://www.w3.org/2000/svg">
<circle cx="110" cy="110" r="106" fill="black" stroke="white" stroke-width="8"/>
<path d="M102.289 79.6094V148H88.7891V95.1719L72.5703 100.328V89.6875L100.836 79.6094H102.289ZM122.07 122.242V120.438C122.07 119.141 122.352 117.961 122.914 116.898C123.477 115.836 124.305 114.984 125.398 114.344C126.492 113.703 127.836 113.383 129.43 113.383C131.07 113.383 132.438 113.703 133.531 114.344C134.641 114.984 135.469 115.836 136.016 116.898C136.578 117.961 136.859 119.141 136.859 120.438V122.242C136.859 123.508 136.578 124.672 136.016 125.734C135.469 126.797 134.648 127.648 133.555 128.289C132.461 128.93 131.109 129.25 129.5 129.25C127.875 129.25 126.508 128.93 125.398 128.289C124.305 127.648 123.477 126.797 122.914 125.734C122.352 124.672 122.07 123.508 122.07 122.242ZM126.547 120.438V122.242C126.547 122.789 126.648 123.312 126.852 123.812C127.07 124.297 127.398 124.695 127.836 125.008C128.289 125.305 128.836 125.453 129.477 125.453C130.148 125.453 130.695 125.305 131.117 125.008C131.539 124.695 131.852 124.297 132.055 123.812C132.258 123.312 132.359 122.789 132.359 122.242V120.438C132.359 119.859 132.25 119.328 132.031 118.844C131.828 118.344 131.508 117.945 131.07 117.648C130.648 117.336 130.102 117.18 129.43 117.18C128.805 117.18 128.273 117.336 127.836 117.648C127.398 117.945 127.07 118.344 126.852 118.844C126.648 119.328 126.547 119.859 126.547 120.438ZM138.383 141.438V139.633C138.383 138.352 138.664 137.18 139.227 136.117C139.805 135.055 140.641 134.203 141.734 133.562C142.844 132.922 144.203 132.602 145.812 132.602C147.438 132.602 148.797 132.922 149.891 133.562C150.984 134.203 151.812 135.055 152.375 136.117C152.938 137.18 153.219 138.352 153.219 139.633V141.438C153.219 142.719 152.938 143.891 152.375 144.953C151.828 146.016 151.008 146.867 149.914 147.508C148.82 148.148 147.469 148.469 145.859 148.469C144.234 148.469 142.867 148.148 141.758 147.508C140.648 146.867 139.805 146.016 139.227 144.953C138.664 143.891 138.383 142.719 138.383 141.438ZM142.883 139.633V141.438C142.883 142 143.008 142.531 143.258 143.031C143.508 143.531 143.852 143.93 144.289 144.227C144.742 144.523 145.266 144.672 145.859 144.672C146.609 144.672 147.195 144.523 147.617 144.227C148.039 143.93 148.328 143.531 148.484 143.031C148.656 142.531 148.742 142 148.742 141.438V139.633C148.742 139.07 148.633 138.547 148.414 138.062C148.195 137.562 147.867 137.164 147.43 136.867C147.008 136.555 146.469 136.398 145.812 136.398C145.156 136.398 144.609 136.555 144.172 136.867C143.75 137.164 143.43 137.562 143.211 138.062C142.992 138.547 142.883 139.07 142.883 139.633ZM147.477 118.75L130.812 145.422L127.531 143.688L144.195 117.016L147.477 118.75Z" fill="#FCD43F"/>
</svg>
