<?xml version="1.0" standalone="no"?>
<!DOCTYPE svg PUBLIC "-//W3C//DTD SVG 20010904//EN"
 "http://www.w3.org/TR/2001/REC-SVG-20010904/DTD/svg10.dtd">
<svg version="1.0" xmlns="http://www.w3.org/2000/svg"
 width="700.000000pt" height="700.000000pt" viewBox="0 0 700.000000 700.000000"
 preserveAspectRatio="xMidYMid meet">
<metadata>
Created by potrace 1.14, written by Peter Selinger 2001-2017
</metadata>
<g transform="translate(0.000000,700.000000) scale(0.100000,-0.100000)"
fill="#000000" stroke="none">
<path d="M3390 6743 c-698 -25 -1369 -272 -1915 -708 -133 -106 -412 -385
-515 -515 -389 -490 -627 -1078 -690 -1705 -15 -143 -15 -490 0 -630 66 -635
299 -1210 691 -1706 104 -132 383 -410 519 -518 623 -494 1391 -740 2183 -700
681 34 1321 275 1860 701 129 102 411 383 509 508 470 596 709 1277 709 2025
1 518 -103 971 -326 1430 -164 337 -367 616 -647 891 -225 221 -462 397 -730
542 -492 267 -1086 405 -1648 385z m-140 -3363 l0 -1090 -210 0 -210 0 0 840
c0 462 -3 840 -6 840 -6 0 -471 -146 -501 -157 -10 -4 -13 33 -13 164 l0 168
453 162 c248 89 460 162 470 163 16 0 17 -58 17 -1090z m953 -1 c49 -13 105
-63 128 -114 26 -56 26 -194 0 -250 -39 -87 -125 -131 -236 -122 -70 5 -108
22 -153 68 -44 45 -55 88 -51 200 3 81 8 101 28 131 27 39 75 75 117 88 41 12
122 12 167 -1z m441 -132 c21 -12 38 -26 38 -32 -3 -20 -517 -835 -527 -835
-16 0 -88 44 -88 53 1 17 518 837 528 837 5 0 28 -10 49 -23z m82 -482 c98
-29 144 -105 144 -239 0 -124 -31 -183 -114 -222 -107 -50 -255 -20 -310 63
-47 72 -57 204 -21 288 42 99 175 148 301 110z"/>
<path d="M4055 3245 c-22 -22 -25 -32 -25 -105 0 -73 3 -83 25 -105 24 -25 73
-33 110 -19 28 11 45 60 45 128 0 55 -4 69 -26 95 -34 41 -92 44 -129 6z"/>
<path d="M4589 2647 c-29 -22 -39 -55 -39 -125 0 -59 3 -73 25 -96 19 -21 33
-26 69 -26 66 0 86 29 86 127 0 69 -2 77 -29 104 -32 31 -82 39 -112 16z"/>
</g>
</svg>
